<svg xmlns="http://www.w3.org/2000/svg" width="30" height="30" viewBox="0 0 30 30">
    <g>
        <circle cx="15" cy="15" r="15" fill="#ddeaf7"/>
        <path fill="#0c539b" stroke="#0c539b" stroke-width="0.2px" d="M17.751 7.711L10.518.477a1.632 1.632 0 0 0-2.308 0L.981 7.706l-.007.007a1.631 1.631 0 0 0 1.086 2.781H2.4v5.322a1.912 1.912 0 0 0 1.91 1.91h2.828a.519.519 0 0 0 .519-.519V11.4a.873.873 0 0 1 .872-.872H10.2a.872.872 0 0 1 .871.872v5.809a.519.519 0 0 0 .519.519h2.829a1.912 1.912 0 0 0 1.91-1.91V10.5h.271a1.632 1.632 0 0 0 1.155-2.786zm-.736 1.573a.59.59 0 0 1-.42.174h-.787a.519.519 0 0 0-.519.519v5.842a.872.872 0 0 1-.871.871h-2.31V11.4A1.912 1.912 0 0 0 10.2 9.49H8.529a1.913 1.913 0 0 0-1.91 1.91v5.29h-2.31a.872.872 0 0 1-.871-.871V9.977a.519.519 0 0 0-.519-.519h-.8a.593.593 0 0 1-.409-1.012l7.234-7.234a.593.593 0 0 1 .839 0l7.23 7.23a.6.6 0 0 1 0 .838zm0 0" transform="translate(5.508 5.604)"/>
        <path fill="#0c539b" d="M1.5 0h.562c.9 0 1.213 1.039 1.213 1.943V4.52l-.343 1C1.331 3.906.22 3.017.22 2.608s.051.562 0-.665S.6 0 1.5 0z" transform="translate(19.236 5.333)"/>
    </g>
</svg>
